<svg xmlns="http://www.w3.org/2000/svg" viewBox="0 0 53.75 68.67"><defs><style>.cls-1{fill:#007cfa;fill-rule:evenodd;}</style></defs><title>Ресурс 1</title><g id="Слой_2" data-name="Слой 2"><g id="Group_14" data-name="Group 14"><g id="Forma_1" data-name="Forma 1"><path class="cls-1" d="M36.12,46.29,9.21,43.8l-.54,5.75,27,2.49Zm-.65,7.4-27,0v5.79l27,0Zm5.85-21.57L18,18.32l-2.94,5L38.38,37.09Zm-3.4,6.59-26.11-7-1.49,5.59,26.11,7Zm2.18,25.4H4.63V40.43H0v28.2H0l1.34,0H44.65v0l0-1.34V40.43H40.1ZM49.12,0l-5.7,1L48.05,27.7l5.7-1ZM27,8.93,42.28,31.31,47,28,31.8,5.63Z"/></g></g></g></svg>