<?xml version="1.0" encoding="UTF-8" standalone="no" ?>
<!DOCTYPE svg PUBLIC "-//W3C//DTD SVG 1.1//EN" "http://www.w3.org/Graphics/SVG/1.1/DTD/svg11.dtd">
<svg xmlns="http://www.w3.org/2000/svg" xmlns:xlink="http://www.w3.org/1999/xlink" version="1.1" width="400" height="400" viewBox="0 0 400 400" xml:space="preserve">
<desc>Created with Fabric.js 3.6.2</desc>
<defs>
</defs>
<g transform="matrix(4.17 0 0 4.17 200 200)" id="Layer_1"  >
<circle style="stroke: none; stroke-width: 1; stroke-dasharray: none; stroke-linecap: butt; stroke-dashoffset: 0; stroke-linejoin: miter; stroke-miterlimit: 4; fill: rgb(3,155,229); fill-rule: nonzero; opacity: 1;"  cx="0" cy="0" r="19" />
</g>
<g transform="matrix(4.17 0 0 4.17 201.6 216.25)" id="Layer_1"  >
<path style="stroke: none; stroke-width: 1; stroke-dasharray: none; stroke-linecap: butt; stroke-dashoffset: 0; stroke-linejoin: miter; stroke-miterlimit: 4; fill: rgb(255,255,255); fill-rule: nonzero; opacity: 1;"  transform=" translate(-24.38, -27.9)" d="M 26.572 29.036 h 4.917 l 0.772 -4.995 h -5.69 v -2.73 c 0 -2.075 0.678 -3.915 2.619 -3.915 h 3.119 v -4.359 c -0.548 -0.074 -1.707 -0.236 -3.897 -0.236 c -4.573 0 -7.254 2.415 -7.254 7.917 v 3.323 h -4.701 v 4.995 h 4.701 v 13.729 C 22.089 42.905 23.032 43 24 43 c 0.875 0 1.729 -0.08 2.572 -0.194 V 29.036 z" stroke-linecap="round" />
</g>
</svg>