<?xml version="1.0" encoding="UTF-8" standalone="no" ?>
<!DOCTYPE svg PUBLIC "-//W3C//DTD SVG 1.1//EN" "http://www.w3.org/Graphics/SVG/1.1/DTD/svg11.dtd">
<svg xmlns="http://www.w3.org/2000/svg" xmlns:xlink="http://www.w3.org/1999/xlink" version="1.1" width="400" height="400" viewBox="0 0 400 400" xml:space="preserve">
<desc>Created with Fabric.js 3.6.2</desc>
<defs>
</defs>
<g transform="matrix(4.17 0 0 4.17 200 200)" id="Layer_1"  >
<circle style="stroke: none; stroke-width: 1; stroke-dasharray: none; stroke-linecap: butt; stroke-dashoffset: 0; stroke-linejoin: miter; stroke-miterlimit: 4; fill: rgb(3,169,244); fill-rule: nonzero; opacity: 1;"  cx="0" cy="0" r="20" />
</g>
<g transform="matrix(4.17 0 0 4.17 200 202.08)" id="Layer_1"  >
<path style="stroke: none; stroke-width: 1; stroke-dasharray: none; stroke-linecap: butt; stroke-dashoffset: 0; stroke-linejoin: miter; stroke-miterlimit: 4; fill: rgb(255,255,255); fill-rule: nonzero; opacity: 1;"  transform=" translate(-24, -24.5)" d="M 36 17.12 c -0.882 0.391 -1.999 0.758 -3 0.88 c 1.018 -0.604 2.633 -1.862 3 -3 c -0.951 0.559 -2.671 1.156 -3.793 1.372 C 31.311 15.422 30.033 15 28.617 15 C 25.897 15 24 17.305 24 20 v 2 c -4 0 -7.9 -3.047 -10.327 -6 c -0.427 0.721 -0.667 1.565 -0.667 2.457 c 0 1.819 1.671 3.665 2.994 4.543 c -0.807 -0.025 -2.335 -0.641 -3 -1 c 0 0.016 0 0.036 0 0.057 c 0 2.367 1.661 3.974 3.912 4.422 C 16.501 26.592 16 27 14.072 27 c 0.626 1.935 3.773 2.958 5.928 3 c -1.686 1.307 -4.692 2 -7 2 c -0.399 0 -0.615 0.022 -1 -0.023 C 14.178 33.357 17.22 34 20 34 c 9.057 0 14 -6.918 14 -13.37 c 0 -0.212 -0.007 -0.922 -0.018 -1.13 C 34.95 18.818 35.342 18.104 36 17.12" stroke-linecap="round" />
</g>
</svg>